<?xml version="1.0" encoding="utf-8"?>
<!-- Generator: Adobe Illustrator 16.0.0, SVG Export Plug-In . SVG Version: 6.00 Build 0)  -->
<!DOCTYPE svg PUBLIC "-//W3C//DTD SVG 1.1//EN" "http://www.w3.org/Graphics/SVG/1.1/DTD/svg11.dtd">
<svg version="1.1" id="Layer_1" xmlns="http://www.w3.org/2000/svg" xmlns:xlink="http://www.w3.org/1999/xlink" x="0px" y="0px"
	 width="800px" height="600px" viewBox="0 0 800 600" enable-background="new 0 0 800 600" xml:space="preserve">
<path fill-rule="evenodd" clip-rule="evenodd" fill="none" stroke="#FFFFFF" stroke-miterlimit="10" d="M395.966,219.975
	c0.17-11.681,0.102-13.138,0-25.005c-0.047-5.474-3.108,1.933-3.262-10.872c-0.028-2.653,1.046-2.421,3.262-2.174
	c1.709-1.461,0.377-3.311-1.087-3.261c-3.441,0.117-7.749-1.436-9.785-4.349c0.941-7.781,6.182-13.559,8.698-23.917
	c7.273-23.719,12.053-52.205,13.047-79.363c1.223-0.125,5.504,0.158,6.523,0c4.394,0.725,11.745,8.72,14.134,7.61
	c-0.589,1.087-1.178,1.631-1.087,3.262c-0.725,0.362-3.59-0.193-7.61,0c-3.42-3.794-7.826-3.511-9.785-3.262
	c0.17,2.649,0.261,3.033,1.087,6.523c4.08,32.128,10.589,61.61,21.745,88.06c-2.366,2.673-4.944,5.34-9.785,5.436
	c-2.28,0.045-2.521,1.06-2.175,3.261c5.845,0.213,4.101-1.522,4.349,7.61c-0.761,3.033-4.327,2.544-4.349,6.523
	c-0.046,8.616-0.081,9.136,0,26.092c0.062,3.252-0.11,4.142,0.509,4.037c0.452-0.076,1.516-4.056,1.666-4.037
	c3.542-11.008,4.841-18.681,6.523-28.266c0.362,0,0.725,0,1.087,0c5.691-0.774,10.045,5.463,15.221,6.523
	c-0.362,0.725-1.108,1.066-1.087,2.174c-1.436,0.253-2.044-0.308-3.262,0c-3.952-0.211-7.037-3.323-9.785-3.262
	c0,1.087-0.445,2.365,1.231,9.802c4.109,17.856,7.902,20.592,13.99,32.597c1.108,0.732,2.052-0.123,2.174-1.087
	c1.284-4.421,2.381-8.758,3.262-11.959c1.977-7.186,3.566-10.171,4.349-16.307c0.622-4.877,2.36-5.324,3.559-0.273
	c2.344,17.377,12.072,36.745,14.924,42.672c5.162,10.73,8.833,13.181,9.785,18.482c-2.715,2.972-5.364,4.288-7.61,4.349
	c-2.811,0.076-3.595,0.442-3.262,2.174c4.443,2.008,4.107,1.353,4.349,7.61c-0.81,4.372-5.499,4.5-5.437,7.61
	c0.079,3.876-0.126,6.701,0,13.046c7.569,1.291,11.536,4.516,13.047,11.959c-1.087,0-2.174,0-3.262,0
	c-5.641-3.689-13.05-7.233-20.657-3.262c-0.827,0.285,0.362,0.725,1.087,1.087c8.152,1.507,24.314,11.285,25.006,21.743
	c7.258-1.49,9.593-5.314,27.181-3.262c8.449,4.569,6.644,9.37,6.523,18.482c27.882-7.627,86.788-17.701,92.415,10.872
	c1.146,5.821,1.885,13.742-2.174,18.482c-3.946,0.152-8.926-0.083-14.134,0c0-0.723,0-0.365,0-1.087c0-0.002,0-1.085,0-1.087
	c-0.464-0.227-0.997,0.158-1.087-1.087c-0.256-8.721,7.85-9.413,5.436-18.481c-8.021-16.364-45.131-8.137-53.274-5.436
	c-18.709,6.205-30.982,12.044-34.791,6.523c-3.125-5.368,4.859-11.489-3.262-16.308c-4.203-3.032-11.433-3.176-18.483-2.174
	c-2.678,2.8,3.786,5.416,0,9.785c-0.362,0-0.725,0-1.087,0c-3.1-0.117-4.286-1.133-4.349-2.174
	c-1.513-25.338-33.42-41.331-56.536-23.917c-11.103,8.364-8.959,18.638-19.57,22.83c-1.427-0.226-2.107-0.385-3.262-1.087
	c-1.585-1.857-1.368-4.578-1.087-7.61c6.75-13.809,13.847-20.792,29.355-25.004c-0.895-0.917-1.484-1.597-2.175-2.174
	c-6.448-5.758-14.531-10.477-25.006-11.959c-32.485-4.597-56.284,33.764-46.75,54.358c-1.45,0-4.312,0.533-6.523-1.087
	c-15.953-16.537-25.971-32.374-48.925-38.051c-38.022-9.402-68.769,20.25-58.651,52.401c14.868,14.359,18.041,5.288,26.035,5.218
	c3.85,1.449,4.477,3.347,4.349,5.436c-1.087,1.812-2.174,3.624-3.262,5.436c-34.854,15.011-52.681-25.899-32.617-53.271
	c27.29-37.228,86.16-28.524,110.897,8.697c1.048,1.214,1.05-0.28,1.087-1.087c10.615-52.008,55.935-51.03,78.281-33.702
	c-7.552-24.518-29.833-21.023-40.228-19.569c-1.248,0.174-11.763-15.19-33.704-4.349c-0.161-9.071-0.39-13.289,1.087-19.569
	c-2.537,0.725-5.074,1.45-7.611,2.174c0.585,1.708-0.884,3.781,1.087,4.349c0.92,0.265,3.171,0.958,3.261,2.174
	c0.29,3.881,0.698,6.31-1.087,8.697c-0.908,1.215-2.658,2.639-3.262,3.261c-2.843,2.933,4.137,13.596-11.959,22.831
	c-4.169-1.775-3.756-10.566-16.309-11.959c-1.811-1.573-1.111-5.422-1.087-8.697c0.022-2.967-4.603-4.25-5.437-7.61
	c-0.363-1.463,0.132-5.521,0-7.61c4.174-1.123,4.269-0.308,4.349-5.436c-5.103-0.646-8.059-1.595-10.872-4.349
	c0.127-5.884,5.788-7.188,14.134-25.005c5.896-13.659,8.854-31.485,10.872-45.661c2.271-0.53,4.897-0.442,7.611,0
	c3.986,2.537,7.973,5.074,11.959,7.61c-1.087,0.725-2.175,1.45-3.262,2.174c-6.979,0.897-12.057-5.26-14.134-3.261
	c0,0.362,0,0.725,0,1.087c5.583,19.569,10.191,45.896,23.919,57.62c1.449-8.696,2.899-17.396,4.349-26.092c0.362,0,0.725,0,1.087,0
	c0.725,1.812,1.45,3.624,2.174,5.436c0.725-5.436,1.45-10.873,2.175-16.308C379.294,219.975,387.631,219.975,395.966,219.975z
	 M351.39,306.948c1.087,0,2.174,0,3.262,0c-2.174,3.624-4.349,7.248-6.523,10.872c2.174,2.536,4.349,5.074,6.523,7.61
	c-1.087,0.362-2.175,0.725-3.262,1.087c-5.126-1.606-8.273-2.978-11.959-5.436c0.758-6.854,2.434-6.869,5.436-10.872
	C347.041,309.123,349.215,308.035,351.39,306.948z M476.421,380.875c3.986,0,7.974,0,11.959,0c0,0.362,0,0.725,0,1.087
	c-2.174,0.725-4.349,1.45-6.523,2.174C480.045,383.049,478.233,381.962,476.421,380.875z M99.153,461.325
	c26.932-0.91,49.88,3.115,57.623,21.743c-2.477,6.304-4.833,10.308-10.872,13.046c-3.624,0-7.249,0-10.872,0
	c0-0.362,0-0.725,0-1.087c3.074-3.984,7.744-6.21,7.611-10.872c-14.616-5.614-29.774-7.933-43.489-7.61c0,14.494,0,28.992,0,43.486
	c34.58,6.47,88.773-1.303,82.63-40.225c-6.759-42.818-77.748-74.401-123.944-78.275c-12.257-1.028-34.707-2.797-40.227,2.174
	c0,0.362,0,0.725,0,1.087c2.252,0.194,4.869,0.395,7.603,3.131c0.16,1.112-0.888,1.409-1.08,2.305
	c-4.453,0.066-10.366,0.818-14.134-1.087c0-1.449,0-2.899,0-4.349c4.391-17.858,40.105-19.571,65.234-15.22
	c47.216,8.175,91.054,27.639,116.333,67.404c31.4,49.393-27.687,92.569-92.414,76.101c-0.84,7.899-3.52,9.659-11.959,9.785
	c-5.379-5.354-4.676-11.314-5.436-16.308c-0.302-1.983-41.866-17.317-44.576-42.399c8.148-15.316,26.559-16.265,44.576-21.743
	c0.588-11.231,0.996-29.653,7.611-33.702c4.34,0.407,4.629,2.602,6.523,6.523C96.978,443.93,98.066,452.628,99.153,461.325z
	 M228.533,400.444c10.237,0.69,14.985,4.574,15.221,6.523c0.083,0.684,0.128,0.998,1.087,1.087
	c21.25,1.976,12.276,24.491-10.873,38.051c-6.054,3.546-15.641,7.489-27.181,2.174c-0.831-0.383-2.421,4.656-5.436,5.436
	c-3.224-0.087-3.767-0.516-4.349-2.174c-1.79-0.939-0.947-9.295-1.225-9.526C176.042,425.577,211.125,400.88,228.533,400.444z
	 M214.399,414.577c-7.227,4.483-13.183,6.382-14.134,17.395c1.993-0.461,10.039-12.804,16.302-16.285
	C217.307,415.275,216.047,414.405,214.399,414.577z M237.23,415.664c-10.75,5.979-19.049,11.778-25.006,22.831
	c11.104,0.875,28.844-5.04,34.791-16.308c-0.183-3.847-0.679-4.04-3.262-5.436C241.58,415.584,239.458,415.383,237.23,415.664z
	 M705.826,427.623c1.087,0,2.174,0,3.262,0c0.017,24.017-0.149,88.634,0,89.147c0.405,1.396,2.678,2.784,3.262,3.261
	c2.631,1.644,5.839,0.801,6.523,1.087c0,0.362,0,2.899,0,3.261c-10.509,0-21.021,0-31.53,0c0-0.362,0-2.899,0-3.261
	c-0.054-0.677,10.713,0.462,10.872-7.61c0.021-7.221-0.446-69.258-0.487-71.301c-0.037-1.826-2.242-5.358-3.861-5.888
	c-1.822-0.706-4.208-0.494-6.523,0c0-0.362,0-1.812,0-2.174C693.503,431.609,699.666,430.16,705.826,427.623z M772.147,427.623
	c-0.089,19.52-0.06,77.071,0,83.711c0.046,5.135,5.725,4.192,9.785,4.349c0.182,0.146,0.004,2.083-0.188,2.291
	c-7.972,3.085-14.029,5.768-20.214,7.809c-0.256-3.938-0.256-6.476-0.256-9.012c-11.941,15.277-35.28,11.765-42.401-16.308
	c-6.678-26.321,23.629-54.814,42.401-35.876c0.111-6.901,0.036-24.129,0-25.004c-0.04-0.986-1.763-2.853-2.174-3.262
	c-1.614-0.23-5.907,0.121-7.61,0c-0.211-0.015-0.097-1.975,0-2.174C757.78,432.131,765.856,429.247,772.147,427.623z
	 M474.247,430.884c11.443-0.019,22.079-0.028,32.617,0c0,0.363,0,1.812,0,2.174c-5.125,0.127-6.369,0.713-8.698,4.349
	c2.851,14.768,15.631,46.214,20.657,58.707c0.507-0.725,0.866-1.505,1.087-2.174c5.563-15.236,10.966-27.013,13.047-36.963
	c0.077-0.368-0.97-3.251-2.175-6.523c-5.022-13.639-6.63-17.194-15.221-17.395c-0.218-0.005,0.049-1.962,0-2.174
	c11.792-0.024,23.81-0.086,35.878,0c0,0.363,0,1.812,0,2.174c-2.599-0.269-6.689,0.401-9.785,2.175
	c-1.315,5.433,12.225,40.301,20.657,60.881c0.362,0,0.725,0,1.087,0c3.476-16.268,19.183-51.908,17.396-58.707
	c-1.229-3.892-6.737-4.302-8.698-4.349c-0.2-0.004-0.195-1.958,0-2.174c8.312-0.011,18.189-0.056,27.181,0
	c0.129,0.194,0.246,2.147,0,2.174c-2.383,0.262-5.72,1.213-7.611,4.349c-10.144,16.822-21.765,68.259-31.529,88.06
	c-0.363,0-1.813,0-2.175,0c-6.885-19.205-13.772-38.415-20.657-57.62c-0.725,0.362-1.45,0.725-2.174,1.087
	c-1.257,7.711-14.758,45.01-18.234,56c-0.447,1.413-2.35,1.142-3.51,0.533c-15.654-42.899-25.395-88.992-35.878-91.322
	c-1.995-0.443-3.046-0.837-3.157-1.067C474.261,432.497,474.169,431.418,474.247,430.884z M331.819,449.366
	c14.735,1.906,28.893,37.294,19.57,63.055c-3.029,4.528-8.492,11.246-15.221,8.698c-11.961-6.601-14.373-26.598-23.919-35.876
	c0.29,13.692,0.696,30.354-4.349,39.138c-2.537,0.842-4.644,0.737-7.61-1.087c-8.676-6.177-1.009-63.845,10.872-58.707
	c7.042,2.939,11.097,12.544,28.268,36.963c0.362,0,0.725,0,1.087,0C339.699,479.271,327.48,452.826,331.819,449.366z
	 M436.193,458.063c0.725,0,1.45,0,2.174,0c-1.036,16.152-15.754,30.17-14.134,42.399c1.087-0.725,3.896-4.458,4.349-5.436
	c6.302-8.937,26.574-35.234,38.053-30.44c24.093,15.258,4.295,47.946-11.959,57.62c-7.972,2.174-15.947,4.349-23.919,6.523
	c-4.729,17.628-9.333,34.374-13.047,53.271c-5.393-0.127-7.945-2.398-11.959-6.523c-7.449-10.976,7.043-53.534,10.872-59.794
	c-2.102-5.888-4.458-10.872-3.261-17.395C414.702,480.887,426.359,467.523,436.193,458.063z M261.15,459.151
	c13.353-0.415,29.527-0.544,34.791,5.436c0,0.362,0,0.725,0,1.087c-0.307,2.896-1.883,4.694-5.436,5.436
	c-23.285,3.306-38.946,3.506-50.013,6.523c-0.792,0.629-0.333,1.546,1.087,2.174c19.415,1.981,40.877,2.642,47.838,9.785
	c6.75,6.617,7.896,17.696-1.087,28.266c-13.813,10.503-40.986,13.419-56.536-8.697c-0.311-2.312-0.407-3.583,0-6.523
	c0.276-2.526,1.774-4.166,3.262-5.436c3.734-4.555,22.323-5.596,39.14,1.087c1.799,0.956,4.001,2.181,1.087,4.349
	c-0.863,0.452-0.648,0.376-3.262,2.174c-14.286,9.57-22.668-9.887-34.792,0c-0.224,0.952-0.169,2.444,1.087,3.262
	c0.863,0.631,0.991,0.628,2.174,1.087c18.284,3.385,40.865-2.905,42.402-7.61c0.141-2.241,0.473-5.396-17.396-9.784
	c-1.935-0.812-13.94-1.13-23.919-1.087c-8.156,0.035-17.722-3.531-11.959-18.481C232.989,468.499,240.839,460.698,261.15,459.151z
	 M606.888,459.151c46.455-3.483,44.531,58.883,14.134,66.317C581.757,535.069,567.27,470.479,606.888,459.151z M663.424,459.151
	c1.167-0.463,2.179-0.332,2.174,0c-0.043,3.086-0.086,10.273,0,11.958c2.654-5.96,9.629-11.551,14.134-11.958
	c6.801-0.596,7.023,1.715,8.839,3.42c2.204,5.426-0.228,8.324-1.229,9.625c-1.066,1.061-2.034,1.097-3.262,1.087
	c-7.078,0.691-6.614-5.413-11.959-4.349c-2.577,1.989-6.46,4.973-6.523,9.785c-0.025,1.926-0.054,33.954,0,36.963
	c1.618,1.801,2.745,3.682,4.349,4.349c1.454,0.604,5.412,0.792,7.611,1.087c0.324,0.043,0.35,3.18,0,3.261
	c-10.146,0-21.383,0-31.53,0c-0.877,0.02-1.526-0.189-2.174-1.087c0-0.362,0-0.725,0-1.087c0.584-2.52,6.218-0.146,9.785-4.349
	c0.141-7.163-0.06-16.33,0-26.092c0.052-8.578,1.353-20.756-2.174-22.831c-2.223-0.969-5.428-0.36-6.523,0
	c-0.1,0.033-0.584-1.94,0-2.174C651.102,463.862,657.264,462.049,663.424,459.151z M386.181,460.238
	c9.008-0.949,15.999-2.157,20.658,0c3.296,2.105,5.436,5.16,6.523,7.61c1.758,3.678,1.299,4.874-3.262,6.523
	c-7.869,2.036-22.505,0.708-26.094,1.087c-0.725,3.261-1.45,6.523-2.174,9.785c7.744-0.291,19.334-1.829,20.657,2.174
	c0,0.362,0,0.725,0,1.087c-0.011,1.597,0.385,5.742-2.174,6.523c-2.585,0.71-20.676,2.041-22.832,3.262
	c-2.372,1.344-3.245,6.246-4.349,10.872c2.537,0,5.753-0.476,7.61-1.087c5.244-1.368,23.601-5.114,23.962,2.619
	c-0.189,2.985,0.584,4.3-2.218,6.079c-12.676,7.353-21.003,14.764-36.966,10.872c-12.512-10.587-8.975-21.817-3.262-32.615
	c0.023-0.043,0.181-2.131-1.087-2.174c-0.194-0.006-0.545-2.703,0-4.349c1.125-3.398,5.168-1.62,5.436-2.174
	c1.799-3.722,3.818-9.677,4.349-11.958c-6.479-1.994-12.335-0.63-10.873-9.785C369.544,461.964,377.484,460.997,386.181,460.238z
	 M211.137,461.325c1.087,0,2.175,0,3.262,0c1.45,1.087,2.899,2.174,4.349,3.261c3.292,14.995,4.79,58.313,2.175,60.881
	c-3.045,1.457-5.993,1.33-8.698,1.087c-1.341-0.821-3.168-2.417-4.349-5.436C204.811,505.148,207.433,475.523,211.137,461.325z
	 M605.801,464.586c-2.939,0.918-7.627,4.908-9.785,11.959c-2.996,9.79,0.722,27.639,3.262,32.615
	c3.095,6.064,5.029,9.315,9.785,11.959c3.976,1.155,4.866,1.223,8.698,1.087c3.039-1.234,4.489-1.967,6.523-4.349
	c2.686-3.992,3.376-5.074,4.349-9.784c3.185-15.415,0.742-36.985-10.872-43.487C614.281,462.995,606.82,462.996,605.801,464.586z
	 M741.705,463.5c-10.79,5.023-17.453,41.694,1.047,52.222c2.59,1.375,5.505,2,9.825,2.136c3.395-1.612,5.87-3.792,8.697-6.523
	c0.103-11.979-0.009-35.132,0-38.051c-1.544-4.082-6.064-8.754-8.697-9.784C749.264,462.646,745.872,462.646,741.705,463.5z
	 M465.549,476.545c-8.539,11.327-18.104,20.172-25.006,33.702c1.812,0,3.624,0,5.436,0
	C454.22,506.767,477.422,491.027,465.549,476.545z M81.757,477.632c-14.891-0.506-33.29,1.848-40.228,9.785
	c0.725,0.725,1.45,1.45,2.175,2.174c5.657,11.946,22.985,20.348,36.966,23.917C81.032,501.551,80.455,490.06,81.757,477.632z"/>
</svg>
